<?xml version="1.0" encoding="UTF-8" standalone="no"?>
<svg
   width="54"
   height="56.819"
   version="1.1"
   id="svg8"
   sodipodi:docname="yocto-file-icon.svg"
   inkscape:version="1.2.2 (b0a8486541, 2022-12-01)"
   xmlns:inkscape="http://www.inkscape.org/namespaces/inkscape"
   xmlns:sodipodi="http://sodipodi.sourceforge.net/DTD/sodipodi-0.dtd"
   xmlns="http://www.w3.org/2000/svg"
   xmlns:svg="http://www.w3.org/2000/svg">
  <defs
     id="defs12" />
  <sodipodi:namedview
     id="namedview10"
     pagecolor="#ffffff"
     bordercolor="#666666"
     borderopacity="1.0"
     inkscape:pageshadow="2"
     inkscape:pageopacity="0.0"
     inkscape:pagecheckerboard="true"
     showgrid="false"
     inkscape:zoom="11.703258"
     inkscape:cx="23.241391"
     inkscape:cy="25.334826"
     inkscape:window-width="1920"
     inkscape:window-height="1011"
     inkscape:window-x="0"
     inkscape:window-y="0"
     inkscape:window-maximized="1"
     inkscape:current-layer="svg8"
     fit-margin-top="10"
     fit-margin-left="10"
     fit-margin-right="10"
     fit-margin-bottom="10"
     inkscape:showpageshadow="2"
     inkscape:deskcolor="#d1d1d1" />
  <path
     d="M 47.626673,10.483015 42.947757,7.832134 33.525892,26.925001 23.474195,7.832134 18.735904,10.483015 30.681753,32.92645 c -0.08615,0.213048 -0.359737,0.800969 -0.82076,1.774239 -0.46568,0.926703 -0.947658,1.85457 -1.45525,2.782437 -0.88712,1.601937 -1.78821,2.904677 -2.716076,3.917531 -0.927867,1.054763 -1.875527,1.895316 -2.848796,2.529805 a 12.538426,12.538426 0 0 1 -3.030411,1.455249 26.7533,26.7533 0 0 1 -3.102591,0.82076 l 2.153768,4.490316 c 0.675236,-0.08615 1.576326,-0.299198 2.717242,-0.633325 1.180498,-0.294542 2.463446,-0.866164 3.856991,-1.70788 1.388891,-0.841715 2.803393,-2.043169 4.233029,-3.60436 1.478534,-1.560026 2.847632,-3.624153 4.109624,-6.19354 l 13.84815,-28.074667"
     fill="#fff"
     id="path4"
     style="fill:#4e96ba;fill-opacity:1;stroke-width:0.116419" />
</svg>
