<?xml version="1.0" encoding="UTF-8" standalone="no"?>
<svg
   width="63.999"
   height="66.819"
   version="1.1"
   id="svg8"
   sodipodi:docname="yocto_circle.svg"
   inkscape:version="1.1.2 (0a00cf5339, 2022-02-04)"
   inkscape:export-filename="/home/deribaucourt/Workspace/yocto-vscode/vscode-bitbake/client/images/icon.png"
   inkscape:export-xdpi="875.87817"
   inkscape:export-ydpi="875.87817"
   xmlns:inkscape="http://www.inkscape.org/namespaces/inkscape"
   xmlns:sodipodi="http://sodipodi.sourceforge.net/DTD/sodipodi-0.dtd"
   xmlns="http://www.w3.org/2000/svg"
   xmlns:svg="http://www.w3.org/2000/svg">
  <defs
     id="defs12" />
  <sodipodi:namedview
     id="namedview10"
     pagecolor="#ffffff"
     bordercolor="#666666"
     borderopacity="1.0"
     inkscape:pageshadow="2"
     inkscape:pageopacity="0.0"
     inkscape:pagecheckerboard="0"
     showgrid="false"
     showguides="false"
     inkscape:snap-bbox="true"
     inkscape:snap-bbox-midpoints="true"
     inkscape:zoom="8.2754531"
     inkscape:cx="2.3563664"
     inkscape:cy="37.762283"
     inkscape:window-width="1920"
     inkscape:window-height="1016"
     inkscape:window-x="0"
     inkscape:window-y="0"
     inkscape:window-maximized="1"
     inkscape:current-layer="layer1" />
  <g
     inkscape:groupmode="layer"
     id="layer1"
     inkscape:label="Layer 1"
     style="display:inline">
    <ellipse
       style="fill:#1f1f1f;fill-opacity:1"
       id="path851"
       cx="32.547081"
       cy="33.502018"
       rx="28.056423"
       ry="28.113499" />
  </g>
  <g
     inkscape:groupmode="layer"
     id="layer2"
     inkscape:label="Layer 2">
    <g
       stroke-width=".1"
       id="g6">
      <path
         d="M49 29.254a2.758 2.758 0 11-5.517 0 2.758 2.758 0 115.516 0"
         fill="#4597d9"
         id="path2" />
      <path
         d="M41.558 17.277L37.539 15l-8.093 16.4L20.812 15l-4.07 2.277 10.261 19.278c-.074.183-.309.688-.705 1.524-.4.796-.814 1.593-1.25 2.39-.762 1.376-1.536 2.495-2.333 3.365-.797.906-1.611 1.628-2.447 2.173a10.77 10.77 0 01-2.603 1.25 22.98 22.98 0 01-2.665.705l1.85 3.857c.58-.074 1.354-.257 2.334-.544 1.014-.253 2.116-.744 3.313-1.467 1.193-.723 2.408-1.755 3.636-3.096 1.27-1.34 2.446-3.113 3.53-5.32l11.895-24.115"
         fill="#fff"
         id="path4" />
    </g>
  </g>
</svg>
