<?xml version="1.0" encoding="UTF-8" standalone="no"?>
<svg
   inkscape:version="1.1.2 (0a00cf5339, 2022-02-04)"
   sodipodi:docname="yocto-pannel-icon.svg"
   version="1.1"
   id="svg2"
   xml:space="preserve"
   width="43.99929"
   height="46.819492"
   viewBox="0 0 43.99929 46.819493"
   xmlns:inkscape="http://www.inkscape.org/namespaces/inkscape"
   xmlns:sodipodi="http://sodipodi.sourceforge.net/DTD/sodipodi-0.dtd"
   xmlns="http://www.w3.org/2000/svg"
   xmlns:svg="http://www.w3.org/2000/svg"
   xmlns:rdf="http://www.w3.org/1999/02/22-rdf-syntax-ns#"
   xmlns:cc="http://creativecommons.org/ns#"
   xmlns:dc="http://purl.org/dc/elements/1.1/"><sodipodi:namedview
     inkscape:current-layer="g10"
     inkscape:window-maximized="1"
     inkscape:window-y="0"
     inkscape:window-x="0"
     inkscape:cy="40.710011"
     inkscape:cx="-14.408056"
     inkscape:zoom="5.1707183"
     showgrid="false"
     id="namedview27"
     inkscape:window-height="1016"
     inkscape:window-width="1920"
     inkscape:pageshadow="2"
     inkscape:pageopacity="0"
     guidetolerance="10"
     gridtolerance="10"
     objecttolerance="10"
     borderopacity="1"
     bordercolor="#666666"
     pagecolor="#ffffff"
     inkscape:pagecheckerboard="true"
     fit-margin-top="5"
     fit-margin-left="5"
     fit-margin-right="5"
     fit-margin-bottom="5" /><metadata
     id="metadata8"><rdf:RDF><cc:Work
         rdf:about=""><dc:format>image/svg+xml</dc:format><dc:type
           rdf:resource="http://purl.org/dc/dcmitype/StillImage" /></cc:Work></rdf:RDF></metadata><defs
     id="defs6" /><g
     id="g10"
     transform="matrix(0.33333177,0,0,-0.33333177,5,52.394444)"><path
       inkscape:connector-curvature="0"
       d="m 101.99835,99.4227 c 0,-4.5723 -3.695998,-8.2813 -8.280996,-8.2813 -4.572,0 -8.267998,3.709 -8.267998,8.2813 0,4.5713 3.695998,8.2793 8.267998,8.2793 4.584998,0 8.280996,-3.708 8.280996,-8.2793 v 0"
       style="fill:#d7dae0;fill-opacity:1;fill-rule:nonzero;stroke:none;stroke-width:0.1"
       id="path14" /><path
       inkscape:connector-curvature="0"
       d="M 79.6738,135.354 67.6184,142.184 43.3375,92.9832 17.4371,142.184 5.22461,135.354 36.0098,77.5184 C 35.7875,76.9707 35.0824,75.4559 33.8941,72.948 32.693,70.5574 31.4512,68.1688 30.1453,65.7762 27.8594,61.6488 25.5348,58.2922 23.1449,55.6801 20.7543,52.9641 18.3113,50.7961 15.8043,49.1629 13.3098,47.5301 10.7105,46.2898 7.99375,45.4148 5.38125,44.552 2.7168,43.8461 0,43.298 L 5.55117,31.725 c 1.7375,0.223 4.06211,0.7719 7.00113,1.6332 3.043,0.7578 6.3477,2.2328 9.9395,4.402 3.5785,2.1679 7.2227,5.2636 10.9059,9.2859 3.814,4.023 7.3406,9.3391 10.5925,15.9609 l 35.6836,72.347"
       style="fill:#d7dae0;fill-opacity:1;fill-rule:nonzero;stroke:none;stroke-width:0.1"
       id="path16" /></g></svg>
